<svg xmlns="http://www.w3.org/2000/svg" xmlns:xlink="http://www.w3.org/1999/xlink" width="1080" zoomAndPan="magnify" viewBox="0 0 810 809.999993" height="1080" preserveAspectRatio="xMidYMid meet" version="1.0"><defs><g/><clipPath id="7c6d20a08a"><path d="M 7.09375 501 L 799 501 L 799 694 L 7.09375 694 Z M 7.09375 501 " clip-rule="nonzero"/></clipPath><clipPath id="3871276a0e"><path d="M 350 24.054688 L 723 24.054688 L 723 694 L 350 694 Z M 350 24.054688 " clip-rule="nonzero"/></clipPath><clipPath id="ff849ad38d"><path d="M 158 24.054688 L 528 24.054688 L 528 502 L 158 502 Z M 158 24.054688 " clip-rule="nonzero"/></clipPath></defs><g clip-path="url(#7c6d20a08a)"><path fill="#875b56" d="M 711.855469 502.132812 L 798.644531 693.582031 L 488.058594 693.507812 C 496.949219 664.105469 505.984375 636.695312 515.585938 610.992188 L 658.003906 610.992188 L 618.027344 501.421875 Z M 475.109375 693.4375 L 423.675781 693.4375 C 417.988281 663.179688 411.441406 635.769531 404.113281 610.992188 L 502.355469 610.992188 C 492.824219 636.765625 483.859375 664.105469 475.109375 693.4375 Z M 411.015625 693.4375 L 330.558594 693.4375 C 340.730469 663.890625 351.117188 636.480469 361.789062 610.992188 L 391.023438 610.992188 C 398.636719 635.699219 405.253906 663.039062 411.015625 693.4375 Z M 317.46875 693.4375 L 307.507812 693.4375 C 303.097656 663.394531 297.90625 636.125 291.503906 610.992188 L 348.269531 610.992188 C 337.742188 636.550781 327.429688 663.964844 317.46875 693.4375 Z M 294.917969 693.4375 L 7.09375 693.367188 L 95.164062 501.421875 L 205.285156 501.421875 L 146.949219 610.992188 L 278.699219 610.992188 C 285.242188 636.054688 290.4375 663.324219 294.917969 693.4375 Z M 294.917969 693.4375 " fill-opacity="1" fill-rule="evenodd"/></g><path fill="#875b56" d="M 380.78125 189.441406 L 307.863281 189.441406 L 421.613281 469.742188 C 436.765625 446.886719 452.628906 426.238281 469.277344 407.515625 Z M 427.449219 484.121094 L 491.472656 641.820312 C 502.570312 608.855469 514.308594 578.527344 527.183594 550.261719 L 474.683594 420.898438 C 458.179688 439.910156 442.457031 460.839844 427.449219 484.121094 Z M 498.65625 659.621094 L 512.316406 693.226562 L 585.230469 693.226562 L 533.65625 566.28125 C 521.136719 594.972656 509.613281 625.945312 498.65625 659.621094 Z M 498.65625 659.621094 " fill-opacity="1" fill-rule="evenodd"/><g clip-path="url(#3871276a0e)"><path fill="#875b56" d="M 458.179688 24.195312 L 350.261719 24.195312 L 492.324219 383.378906 C 517.722656 358.460938 544.96875 337.171875 574.488281 318.304688 Z M 497.449219 396.480469 L 544.398438 515.09375 C 563.746094 478.140625 585.871094 444.679688 612.050781 413.351562 L 579.257812 330.480469 C 549.875 349.5625 522.773438 371.132812 497.449219 396.480469 Z M 550.445312 530.46875 L 614.824219 693.226562 L 722.742188 693.226562 L 617.316406 426.59375 C 591.347656 458.421875 569.582031 492.523438 550.445312 530.46875 Z M 550.445312 530.46875 " fill-opacity="1" fill-rule="evenodd"/></g><g clip-path="url(#ff849ad38d)"><path fill="#00a859" d="M 349.339844 291.609375 L 367.621094 336.605469 L 440.539062 336.605469 L 385.261719 200.40625 L 402.550781 156.476562 L 419.480469 199.265625 L 527.398438 199.265625 L 458.179688 24.195312 L 346.777344 24.195312 L 207.277344 378.394531 C 240.140625 393.488281 269.09375 410.363281 294.421875 431.152344 Z M 182.449219 441.476562 L 158.902344 501.421875 L 232.175781 501.421875 C 227.765625 494.445312 225.132812 490.8125 220.082031 484.121094 C 209.125 469.382812 196.675781 455.289062 182.449219 441.476562 Z M 182.449219 441.476562 " fill-opacity="1" fill-rule="evenodd"/></g><path fill="#875b56" d="M 158.902344 501.421875 L 83.355469 693.226562 L 191.269531 693.226562 L 252.449219 537.734375 C 252.023438 536.878906 251.59375 535.953125 251.167969 535.027344 C 250.671875 534.03125 250.171875 532.960938 249.601562 531.964844 L 249.601562 531.824219 C 248.679688 529.972656 247.683594 528.191406 246.757812 526.339844 L 246.402344 525.628906 L 245.191406 523.421875 L 244.90625 522.921875 L 243.628906 520.644531 L 243.199219 519.792969 L 242.917969 519.292969 L 242.632812 518.792969 L 242.347656 518.296875 L 242.0625 517.726562 L 241.492188 516.730469 L 241.207031 516.230469 L 240.496094 515.09375 L 239.714844 513.667969 L 239.429688 513.167969 L 239.074219 512.671875 L 238.789062 512.101562 L 238.222656 511.105469 L 237.867188 510.605469 L 237.582031 510.109375 L 237.296875 509.609375 L 236.15625 507.757812 L 236.085938 507.617188 L 232.457031 501.921875 L 232.175781 501.421875 Z M 158.902344 501.421875 " fill-opacity="1" fill-rule="evenodd"/><path fill="#00a859" d="M 411.15625 694.078125 C 402.265625 647.230469 391.382812 607.71875 378.21875 573.972656 C 361.503906 609.640625 345.640625 649.4375 330.34375 694.078125 Z M 371.746094 558.308594 C 314.765625 427.308594 218.585938 389.21875 64.429688 338.738281 C 141.472656 385.445312 193.617188 427.804688 230.039062 476.574219 C 273.222656 534.527344 293.992188 601.027344 307.582031 694.078125 L 317.253906 694.078125 C 334.542969 642.960938 352.609375 598.035156 371.746094 558.308594 Z M 371.746094 558.308594 " fill-opacity="1" fill-rule="evenodd"/><path fill="#00a859" d="M 893.613281 203.039062 C 600.027344 294.171875 447.863281 350.628906 330.34375 694.078125 L 474.898438 694.078125 C 512.8125 566.921875 554.785156 476.433594 625.566406 397.832031 C 687.457031 329.058594 771.257812 269.679688 893.613281 203.039062 Z M 893.613281 203.039062 " fill-opacity="1" fill-rule="evenodd"/><g fill="#00a959" fill-opacity="1"><g transform="translate(7.094041, 752.840512)"><g><path d="M 24.4375 -29.265625 L 13.9375 0 L 10.515625 0 L 0 -29.265625 L 3.5625 -29.265625 L 10.40625 -9.984375 C 10.6875 -9.210938 10.9375 -8.472656 11.15625 -7.765625 C 11.375 -7.054688 11.570312 -6.375 11.75 -5.71875 C 11.925781 -5.070312 12.082031 -4.441406 12.21875 -3.828125 C 12.34375 -4.441406 12.492188 -5.078125 12.671875 -5.734375 C 12.847656 -6.398438 13.046875 -7.085938 13.265625 -7.796875 C 13.492188 -8.515625 13.75 -9.265625 14.03125 -10.046875 L 20.84375 -29.265625 Z M 24.4375 -29.265625 "/></g></g></g><g fill="#00a959" fill-opacity="1"><g transform="translate(28.784358, 752.840512)"><g><path d="M 4 0 L 4 -29.265625 L 7.40625 -29.265625 L 7.40625 0 Z M 4 0 "/></g></g></g><g fill="#00a959" fill-opacity="1"><g transform="translate(37.485086, 752.840512)"><g><path d="M 20.296875 0 L 4 0 L 4 -29.265625 L 20.296875 -29.265625 L 20.296875 -26.265625 L 7.40625 -26.265625 L 7.40625 -16.796875 L 19.5625 -16.796875 L 19.5625 -13.828125 L 7.40625 -13.828125 L 7.40625 -3 L 20.296875 -3 Z M 20.296875 0 "/></g></g></g><g fill="#00a959" fill-opacity="1"><g transform="translate(57.514178, 752.840512)"><g><path d="M 13 0 L 9.5625 0 L 9.5625 -26.265625 L 0.359375 -26.265625 L 0.359375 -29.265625 L 22.15625 -29.265625 L 22.15625 -26.265625 L 13 -26.265625 Z M 13 0 "/></g></g></g><g fill="#00a959" fill-opacity="1"><g transform="translate(77.343119, 752.840512)"><g><path d="M 26.890625 0 L 22.96875 0 L 7 -24.578125 L 6.84375 -24.578125 C 6.882812 -23.929688 6.929688 -23.1875 6.984375 -22.34375 C 7.035156 -21.507812 7.078125 -20.625 7.109375 -19.6875 C 7.148438 -18.75 7.171875 -17.789062 7.171875 -16.8125 L 7.171875 0 L 4 0 L 4 -29.265625 L 7.90625 -29.265625 L 23.796875 -4.765625 L 23.9375 -4.765625 C 23.914062 -5.234375 23.882812 -5.894531 23.84375 -6.75 C 23.800781 -7.613281 23.765625 -8.539062 23.734375 -9.53125 C 23.703125 -10.53125 23.6875 -11.457031 23.6875 -12.3125 L 23.6875 -29.265625 L 26.890625 -29.265625 Z M 26.890625 0 "/></g></g></g><g fill="#00a959" fill-opacity="1"><g transform="translate(105.458177, 752.840512)"><g><path d="M 22.359375 0 L 18.765625 -9.296875 L 7.03125 -9.296875 L 3.4375 0 L 0 0 L 11.453125 -29.390625 L 14.515625 -29.390625 L 25.890625 0 Z M 17.734375 -12.3125 L 14.3125 -21.546875 C 14.226562 -21.785156 14.097656 -22.175781 13.921875 -22.71875 C 13.742188 -23.269531 13.5625 -23.835938 13.375 -24.421875 C 13.1875 -25.015625 13.03125 -25.488281 12.90625 -25.84375 C 12.78125 -25.300781 12.640625 -24.757812 12.484375 -24.21875 C 12.328125 -23.675781 12.175781 -23.171875 12.03125 -22.703125 C 11.882812 -22.242188 11.757812 -21.859375 11.65625 -21.546875 L 8.171875 -12.3125 Z M 17.734375 -12.3125 "/></g></g></g><g fill="#00a959" fill-opacity="1"><g transform="translate(128.629593, 752.840512)"><g><path d="M 16.875 0 L 7.046875 -25.90625 L 6.890625 -25.90625 C 6.941406 -25.351562 6.988281 -24.679688 7.03125 -23.890625 C 7.070312 -23.109375 7.101562 -22.253906 7.125 -21.328125 C 7.15625 -20.398438 7.171875 -19.457031 7.171875 -18.5 L 7.171875 0 L 4 0 L 4 -29.265625 L 9.046875 -29.265625 L 18.3125 -4.921875 L 18.453125 -4.921875 L 27.875 -29.265625 L 32.875 -29.265625 L 32.875 0 L 29.515625 0 L 29.515625 -18.734375 C 29.515625 -19.609375 29.523438 -20.476562 29.546875 -21.34375 C 29.578125 -22.21875 29.609375 -23.046875 29.640625 -23.828125 C 29.679688 -24.609375 29.722656 -25.285156 29.765625 -25.859375 L 29.609375 -25.859375 L 19.65625 0 Z M 16.875 0 "/></g></g></g><g fill="#00a959" fill-opacity="1"><g transform="translate(162.749084, 752.840512)"><g/></g></g><g fill="#00a959" fill-opacity="1"><g transform="translate(170.649219, 752.840512)"><g><path d="M 11.90625 -29.265625 C 14.3125 -29.265625 16.296875 -28.96875 17.859375 -28.375 C 19.429688 -27.78125 20.601562 -26.875 21.375 -25.65625 C 22.15625 -24.445312 22.546875 -22.898438 22.546875 -21.015625 C 22.546875 -19.472656 22.265625 -18.179688 21.703125 -17.140625 C 21.140625 -16.109375 20.40625 -15.269531 19.5 -14.625 C 18.59375 -13.988281 17.625 -13.5 16.59375 -13.15625 L 24.625 0 L 20.65625 0 L 13.5 -12.21875 L 7.40625 -12.21875 L 7.40625 0 L 4 0 L 4 -29.265625 Z M 11.71875 -26.328125 L 7.40625 -26.328125 L 7.40625 -15.09375 L 12.046875 -15.09375 C 14.441406 -15.09375 16.203125 -15.578125 17.328125 -16.546875 C 18.453125 -17.523438 19.015625 -18.960938 19.015625 -20.859375 C 19.015625 -22.847656 18.414062 -24.253906 17.21875 -25.078125 C 16.03125 -25.910156 14.195312 -26.328125 11.71875 -26.328125 Z M 11.71875 -26.328125 "/></g></g></g><g fill="#00a959" fill-opacity="1"><g transform="translate(193.200169, 752.840512)"><g><path d="M 26.140625 -29.265625 L 26.140625 -10.328125 C 26.140625 -8.265625 25.722656 -6.421875 24.890625 -4.796875 C 24.054688 -3.179688 22.796875 -1.910156 21.109375 -0.984375 C 19.429688 -0.0546875 17.328125 0.40625 14.796875 0.40625 C 11.179688 0.40625 8.425781 -0.570312 6.53125 -2.53125 C 4.644531 -4.5 3.703125 -7.125 3.703125 -10.40625 L 3.703125 -29.265625 L 7.125 -29.265625 L 7.125 -10.3125 C 7.125 -7.832031 7.78125 -5.914062 9.09375 -4.5625 C 10.414062 -3.21875 12.382812 -2.546875 15 -2.546875 C 16.78125 -2.546875 18.238281 -2.867188 19.375 -3.515625 C 20.519531 -4.160156 21.367188 -5.066406 21.921875 -6.234375 C 22.484375 -7.398438 22.765625 -8.753906 22.765625 -10.296875 L 22.765625 -29.265625 Z M 26.140625 -29.265625 "/></g></g></g><g fill="#00a959" fill-opacity="1"><g transform="translate(220.334503, 752.840512)"><g><path d="M 11.90625 -29.265625 C 14.3125 -29.265625 16.296875 -28.96875 17.859375 -28.375 C 19.429688 -27.78125 20.601562 -26.875 21.375 -25.65625 C 22.15625 -24.445312 22.546875 -22.898438 22.546875 -21.015625 C 22.546875 -19.472656 22.265625 -18.179688 21.703125 -17.140625 C 21.140625 -16.109375 20.40625 -15.269531 19.5 -14.625 C 18.59375 -13.988281 17.625 -13.5 16.59375 -13.15625 L 24.625 0 L 20.65625 0 L 13.5 -12.21875 L 7.40625 -12.21875 L 7.40625 0 L 4 0 L 4 -29.265625 Z M 11.71875 -26.328125 L 7.40625 -26.328125 L 7.40625 -15.09375 L 12.046875 -15.09375 C 14.441406 -15.09375 16.203125 -15.578125 17.328125 -16.546875 C 18.453125 -17.523438 19.015625 -18.960938 19.015625 -20.859375 C 19.015625 -22.847656 18.414062 -24.253906 17.21875 -25.078125 C 16.03125 -25.910156 14.195312 -26.328125 11.71875 -26.328125 Z M 11.71875 -26.328125 "/></g></g></g><g fill="#00a959" fill-opacity="1"><g transform="translate(242.885454, 752.840512)"><g><path d="M 22.359375 0 L 18.765625 -9.296875 L 7.03125 -9.296875 L 3.4375 0 L 0 0 L 11.453125 -29.390625 L 14.515625 -29.390625 L 25.890625 0 Z M 17.734375 -12.3125 L 14.3125 -21.546875 C 14.226562 -21.785156 14.097656 -22.175781 13.921875 -22.71875 C 13.742188 -23.269531 13.5625 -23.835938 13.375 -24.421875 C 13.1875 -25.015625 13.03125 -25.488281 12.90625 -25.84375 C 12.78125 -25.300781 12.640625 -24.757812 12.484375 -24.21875 C 12.328125 -23.675781 12.175781 -23.171875 12.03125 -22.703125 C 11.882812 -22.242188 11.757812 -21.859375 11.65625 -21.546875 L 8.171875 -12.3125 Z M 17.734375 -12.3125 "/></g></g></g><g fill="#00a959" fill-opacity="1"><g transform="translate(266.056876, 752.840512)"><g><path d="M 4 0 L 4 -29.265625 L 7.40625 -29.265625 L 7.40625 -3.046875 L 20.40625 -3.046875 L 20.40625 0 Z M 4 0 "/></g></g></g><g fill="#00a959" fill-opacity="1"><g transform="translate(284.704959, 752.840512)"><g/></g></g><g fill="#00a959" fill-opacity="1"><g transform="translate(292.605108, 752.840512)"><g><path d="M 27.25 -14.921875 C 27.25 -11.617188 26.644531 -8.863281 25.4375 -6.65625 C 24.238281 -4.445312 22.5 -2.785156 20.21875 -1.671875 C 17.945312 -0.554688 15.191406 0 11.953125 0 L 4 0 L 4 -29.265625 L 12.828125 -29.265625 C 15.804688 -29.265625 18.367188 -28.71875 20.515625 -27.625 C 22.671875 -26.539062 24.332031 -24.9375 25.5 -22.8125 C 26.664062 -20.6875 27.25 -18.054688 27.25 -14.921875 Z M 23.65625 -14.796875 C 23.65625 -17.421875 23.21875 -19.585938 22.34375 -21.296875 C 21.476562 -23.003906 20.195312 -24.273438 18.5 -25.109375 C 16.8125 -25.941406 14.75 -26.359375 12.3125 -26.359375 L 7.40625 -26.359375 L 7.40625 -2.921875 L 11.546875 -2.921875 C 15.578125 -2.921875 18.601562 -3.914062 20.625 -5.90625 C 22.644531 -7.894531 23.65625 -10.859375 23.65625 -14.796875 Z M 23.65625 -14.796875 "/></g></g></g><g fill="#00a959" fill-opacity="1"><g transform="translate(319.599353, 752.840512)"><g><path d="M 20.296875 0 L 4 0 L 4 -29.265625 L 20.296875 -29.265625 L 20.296875 -26.265625 L 7.40625 -26.265625 L 7.40625 -16.796875 L 19.5625 -16.796875 L 19.5625 -13.828125 L 7.40625 -13.828125 L 7.40625 -3 L 20.296875 -3 Z M 20.296875 0 "/></g></g></g><g fill="#00a959" fill-opacity="1"><g transform="translate(339.628456, 752.840512)"><g><path d="M 24.4375 -29.265625 L 13.9375 0 L 10.515625 0 L 0 -29.265625 L 3.5625 -29.265625 L 10.40625 -9.984375 C 10.6875 -9.210938 10.9375 -8.472656 11.15625 -7.765625 C 11.375 -7.054688 11.570312 -6.375 11.75 -5.71875 C 11.925781 -5.070312 12.082031 -4.441406 12.21875 -3.828125 C 12.34375 -4.441406 12.492188 -5.078125 12.671875 -5.734375 C 12.847656 -6.398438 13.046875 -7.085938 13.265625 -7.796875 C 13.492188 -8.515625 13.75 -9.265625 14.03125 -10.046875 L 20.84375 -29.265625 Z M 24.4375 -29.265625 "/></g></g></g><g fill="#00a959" fill-opacity="1"><g transform="translate(361.318785, 752.840512)"><g><path d="M 20.296875 0 L 4 0 L 4 -29.265625 L 20.296875 -29.265625 L 20.296875 -26.265625 L 7.40625 -26.265625 L 7.40625 -16.796875 L 19.5625 -16.796875 L 19.5625 -13.828125 L 7.40625 -13.828125 L 7.40625 -3 L 20.296875 -3 Z M 20.296875 0 "/></g></g></g><g fill="#00a959" fill-opacity="1"><g transform="translate(381.347887, 752.840512)"><g><path d="M 4 0 L 4 -29.265625 L 7.40625 -29.265625 L 7.40625 -3.046875 L 20.40625 -3.046875 L 20.40625 0 Z M 4 0 "/></g></g></g><g fill="#00a959" fill-opacity="1"><g transform="translate(399.995971, 752.840512)"><g><path d="M 29.390625 -14.671875 C 29.390625 -12.421875 29.101562 -10.367188 28.53125 -8.515625 C 27.957031 -6.671875 27.101562 -5.082031 25.96875 -3.75 C 24.84375 -2.425781 23.445312 -1.398438 21.78125 -0.671875 C 20.113281 0.046875 18.175781 0.40625 15.96875 0.40625 C 13.707031 0.40625 11.726562 0.046875 10.03125 -0.671875 C 8.34375 -1.398438 6.941406 -2.429688 5.828125 -3.765625 C 4.722656 -5.097656 3.890625 -6.691406 3.328125 -8.546875 C 2.773438 -10.398438 2.5 -12.457031 2.5 -14.71875 C 2.5 -17.707031 2.992188 -20.328125 3.984375 -22.578125 C 4.972656 -24.835938 6.46875 -26.59375 8.46875 -27.84375 C 10.476562 -29.101562 13 -29.734375 16.03125 -29.734375 C 18.925781 -29.734375 21.363281 -29.109375 23.34375 -27.859375 C 25.332031 -26.617188 26.835938 -24.875 27.859375 -22.625 C 28.878906 -20.382812 29.390625 -17.734375 29.390625 -14.671875 Z M 6.09375 -14.671875 C 6.09375 -12.191406 6.441406 -10.039062 7.140625 -8.21875 C 7.847656 -6.40625 8.929688 -5.003906 10.390625 -4.015625 C 11.859375 -3.035156 13.71875 -2.546875 15.96875 -2.546875 C 18.238281 -2.546875 20.097656 -3.035156 21.546875 -4.015625 C 22.992188 -5.003906 24.066406 -6.40625 24.765625 -8.21875 C 25.460938 -10.039062 25.8125 -12.191406 25.8125 -14.671875 C 25.8125 -18.453125 25.019531 -21.40625 23.4375 -23.53125 C 21.851562 -25.65625 19.382812 -26.71875 16.03125 -26.71875 C 13.757812 -26.71875 11.890625 -26.226562 10.421875 -25.25 C 8.960938 -24.28125 7.875 -22.898438 7.15625 -21.109375 C 6.445312 -19.316406 6.09375 -17.171875 6.09375 -14.671875 Z M 6.09375 -14.671875 "/></g></g></g><g fill="#00a959" fill-opacity="1"><g transform="translate(429.131768, 752.840512)"><g><path d="M 11.65625 -29.265625 C 15.425781 -29.265625 18.179688 -28.523438 19.921875 -27.046875 C 21.671875 -25.578125 22.546875 -23.46875 22.546875 -20.71875 C 22.546875 -19.476562 22.34375 -18.300781 21.9375 -17.1875 C 21.53125 -16.070312 20.867188 -15.085938 19.953125 -14.234375 C 19.046875 -13.390625 17.851562 -12.722656 16.375 -12.234375 C 14.90625 -11.753906 13.101562 -11.515625 10.96875 -11.515625 L 7.40625 -11.515625 L 7.40625 0 L 4 0 L 4 -29.265625 Z M 11.328125 -26.359375 L 7.40625 -26.359375 L 7.40625 -14.4375 L 10.59375 -14.4375 C 12.457031 -14.4375 14.015625 -14.632812 15.265625 -15.03125 C 16.515625 -15.4375 17.453125 -16.085938 18.078125 -16.984375 C 18.703125 -17.890625 19.015625 -19.085938 19.015625 -20.578125 C 19.015625 -22.523438 18.394531 -23.972656 17.15625 -24.921875 C 15.914062 -25.878906 13.972656 -26.359375 11.328125 -26.359375 Z M 11.328125 -26.359375 "/></g></g></g><g fill="#00a959" fill-opacity="1"><g transform="translate(451.04226, 752.840512)"><g><path d="M 16.875 0 L 7.046875 -25.90625 L 6.890625 -25.90625 C 6.941406 -25.351562 6.988281 -24.679688 7.03125 -23.890625 C 7.070312 -23.109375 7.101562 -22.253906 7.125 -21.328125 C 7.15625 -20.398438 7.171875 -19.457031 7.171875 -18.5 L 7.171875 0 L 4 0 L 4 -29.265625 L 9.046875 -29.265625 L 18.3125 -4.921875 L 18.453125 -4.921875 L 27.875 -29.265625 L 32.875 -29.265625 L 32.875 0 L 29.515625 0 L 29.515625 -18.734375 C 29.515625 -19.609375 29.523438 -20.476562 29.546875 -21.34375 C 29.578125 -22.21875 29.609375 -23.046875 29.640625 -23.828125 C 29.679688 -24.609375 29.722656 -25.285156 29.765625 -25.859375 L 29.609375 -25.859375 L 19.65625 0 Z M 16.875 0 "/></g></g></g><g fill="#00a959" fill-opacity="1"><g transform="translate(485.161763, 752.840512)"><g><path d="M 20.296875 0 L 4 0 L 4 -29.265625 L 20.296875 -29.265625 L 20.296875 -26.265625 L 7.40625 -26.265625 L 7.40625 -16.796875 L 19.5625 -16.796875 L 19.5625 -13.828125 L 7.40625 -13.828125 L 7.40625 -3 L 20.296875 -3 Z M 20.296875 0 "/></g></g></g><g fill="#00a959" fill-opacity="1"><g transform="translate(505.190838, 752.840512)"><g><path d="M 26.890625 0 L 22.96875 0 L 7 -24.578125 L 6.84375 -24.578125 C 6.882812 -23.929688 6.929688 -23.1875 6.984375 -22.34375 C 7.035156 -21.507812 7.078125 -20.625 7.109375 -19.6875 C 7.148438 -18.75 7.171875 -17.789062 7.171875 -16.8125 L 7.171875 0 L 4 0 L 4 -29.265625 L 7.90625 -29.265625 L 23.796875 -4.765625 L 23.9375 -4.765625 C 23.914062 -5.234375 23.882812 -5.894531 23.84375 -6.75 C 23.800781 -7.613281 23.765625 -8.539062 23.734375 -9.53125 C 23.703125 -10.53125 23.6875 -11.457031 23.6875 -12.3125 L 23.6875 -29.265625 L 26.890625 -29.265625 Z M 26.890625 0 "/></g></g></g><g fill="#00a959" fill-opacity="1"><g transform="translate(533.305882, 752.840512)"><g><path d="M 13 0 L 9.5625 0 L 9.5625 -26.265625 L 0.359375 -26.265625 L 0.359375 -29.265625 L 22.15625 -29.265625 L 22.15625 -26.265625 L 13 -26.265625 Z M 13 0 "/></g></g></g><g fill="#00a959" fill-opacity="1"><g transform="translate(553.13481, 752.840512)"><g/></g></g><g fill="#00a959" fill-opacity="1"><g transform="translate(561.056188, 752.840512)"><g><path d="M 16.515625 -26.6875 C 14.898438 -26.6875 13.445312 -26.410156 12.15625 -25.859375 C 10.875 -25.304688 9.78125 -24.503906 8.875 -23.453125 C 7.976562 -22.398438 7.289062 -21.132812 6.8125 -19.65625 C 6.332031 -18.175781 6.09375 -16.507812 6.09375 -14.65625 C 6.09375 -12.195312 6.472656 -10.0625 7.234375 -8.25 C 8.003906 -6.445312 9.148438 -5.050781 10.671875 -4.0625 C 12.203125 -3.070312 14.117188 -2.578125 16.421875 -2.578125 C 17.722656 -2.578125 18.953125 -2.6875 20.109375 -2.90625 C 21.265625 -3.132812 22.390625 -3.414062 23.484375 -3.75 L 23.484375 -0.78125 C 22.410156 -0.382812 21.285156 -0.0859375 20.109375 0.109375 C 18.941406 0.304688 17.550781 0.40625 15.9375 0.40625 C 12.957031 0.40625 10.46875 -0.207031 8.46875 -1.4375 C 6.476562 -2.675781 4.984375 -4.421875 3.984375 -6.671875 C 2.992188 -8.929688 2.5 -11.597656 2.5 -14.671875 C 2.5 -16.890625 2.804688 -18.914062 3.421875 -20.75 C 4.046875 -22.582031 4.957031 -24.164062 6.15625 -25.5 C 7.351562 -26.832031 8.820312 -27.863281 10.5625 -28.59375 C 12.300781 -29.320312 14.300781 -29.6875 16.5625 -29.6875 C 18.039062 -29.6875 19.46875 -29.539062 20.84375 -29.25 C 22.21875 -28.957031 23.457031 -28.535156 24.5625 -27.984375 L 23.203125 -25.109375 C 22.265625 -25.535156 21.238281 -25.90625 20.125 -26.21875 C 19.007812 -26.53125 17.804688 -26.6875 16.515625 -26.6875 Z M 16.515625 -26.6875 "/></g></g></g><g fill="#00a959" fill-opacity="1"><g transform="translate(584.127525, 752.840512)"><g><path d="M 29.390625 -14.671875 C 29.390625 -12.421875 29.101562 -10.367188 28.53125 -8.515625 C 27.957031 -6.671875 27.101562 -5.082031 25.96875 -3.75 C 24.84375 -2.425781 23.445312 -1.398438 21.78125 -0.671875 C 20.113281 0.046875 18.175781 0.40625 15.96875 0.40625 C 13.707031 0.40625 11.726562 0.046875 10.03125 -0.671875 C 8.34375 -1.398438 6.941406 -2.429688 5.828125 -3.765625 C 4.722656 -5.097656 3.890625 -6.691406 3.328125 -8.546875 C 2.773438 -10.398438 2.5 -12.457031 2.5 -14.71875 C 2.5 -17.707031 2.992188 -20.328125 3.984375 -22.578125 C 4.972656 -24.835938 6.46875 -26.59375 8.46875 -27.84375 C 10.476562 -29.101562 13 -29.734375 16.03125 -29.734375 C 18.925781 -29.734375 21.363281 -29.109375 23.34375 -27.859375 C 25.332031 -26.617188 26.835938 -24.875 27.859375 -22.625 C 28.878906 -20.382812 29.390625 -17.734375 29.390625 -14.671875 Z M 6.09375 -14.671875 C 6.09375 -12.191406 6.441406 -10.039062 7.140625 -8.21875 C 7.847656 -6.40625 8.929688 -5.003906 10.390625 -4.015625 C 11.859375 -3.035156 13.71875 -2.546875 15.96875 -2.546875 C 18.238281 -2.546875 20.097656 -3.035156 21.546875 -4.015625 C 22.992188 -5.003906 24.066406 -6.40625 24.765625 -8.21875 C 25.460938 -10.039062 25.8125 -12.191406 25.8125 -14.671875 C 25.8125 -18.453125 25.019531 -21.40625 23.4375 -23.53125 C 21.851562 -25.65625 19.382812 -26.71875 16.03125 -26.71875 C 13.757812 -26.71875 11.890625 -26.226562 10.421875 -25.25 C 8.960938 -24.28125 7.875 -22.898438 7.15625 -21.109375 C 6.445312 -19.316406 6.09375 -17.171875 6.09375 -14.671875 Z M 6.09375 -14.671875 "/></g></g></g><g fill="#00a959" fill-opacity="1"><g transform="translate(613.263336, 752.840512)"><g><path d="M 29.390625 -14.671875 C 29.390625 -12.421875 29.101562 -10.367188 28.53125 -8.515625 C 27.957031 -6.671875 27.101562 -5.082031 25.96875 -3.75 C 24.84375 -2.425781 23.445312 -1.398438 21.78125 -0.671875 C 20.113281 0.046875 18.175781 0.40625 15.96875 0.40625 C 13.707031 0.40625 11.726562 0.046875 10.03125 -0.671875 C 8.34375 -1.398438 6.941406 -2.429688 5.828125 -3.765625 C 4.722656 -5.097656 3.890625 -6.691406 3.328125 -8.546875 C 2.773438 -10.398438 2.5 -12.457031 2.5 -14.71875 C 2.5 -17.707031 2.992188 -20.328125 3.984375 -22.578125 C 4.972656 -24.835938 6.46875 -26.59375 8.46875 -27.84375 C 10.476562 -29.101562 13 -29.734375 16.03125 -29.734375 C 18.925781 -29.734375 21.363281 -29.109375 23.34375 -27.859375 C 25.332031 -26.617188 26.835938 -24.875 27.859375 -22.625 C 28.878906 -20.382812 29.390625 -17.734375 29.390625 -14.671875 Z M 6.09375 -14.671875 C 6.09375 -12.191406 6.441406 -10.039062 7.140625 -8.21875 C 7.847656 -6.40625 8.929688 -5.003906 10.390625 -4.015625 C 11.859375 -3.035156 13.71875 -2.546875 15.96875 -2.546875 C 18.238281 -2.546875 20.097656 -3.035156 21.546875 -4.015625 C 22.992188 -5.003906 24.066406 -6.40625 24.765625 -8.21875 C 25.460938 -10.039062 25.8125 -12.191406 25.8125 -14.671875 C 25.8125 -18.453125 25.019531 -21.40625 23.4375 -23.53125 C 21.851562 -25.65625 19.382812 -26.71875 16.03125 -26.71875 C 13.757812 -26.71875 11.890625 -26.226562 10.421875 -25.25 C 8.960938 -24.28125 7.875 -22.898438 7.15625 -21.109375 C 6.445312 -19.316406 6.09375 -17.171875 6.09375 -14.671875 Z M 6.09375 -14.671875 "/></g></g></g><g fill="#00a959" fill-opacity="1"><g transform="translate(642.399148, 752.840512)"><g><path d="M 11.65625 -29.265625 C 15.425781 -29.265625 18.179688 -28.523438 19.921875 -27.046875 C 21.671875 -25.578125 22.546875 -23.46875 22.546875 -20.71875 C 22.546875 -19.476562 22.34375 -18.300781 21.9375 -17.1875 C 21.53125 -16.070312 20.867188 -15.085938 19.953125 -14.234375 C 19.046875 -13.390625 17.851562 -12.722656 16.375 -12.234375 C 14.90625 -11.753906 13.101562 -11.515625 10.96875 -11.515625 L 7.40625 -11.515625 L 7.40625 0 L 4 0 L 4 -29.265625 Z M 11.328125 -26.359375 L 7.40625 -26.359375 L 7.40625 -14.4375 L 10.59375 -14.4375 C 12.457031 -14.4375 14.015625 -14.632812 15.265625 -15.03125 C 16.515625 -15.4375 17.453125 -16.085938 18.078125 -16.984375 C 18.703125 -17.890625 19.015625 -19.085938 19.015625 -20.578125 C 19.015625 -22.523438 18.394531 -23.972656 17.15625 -24.921875 C 15.914062 -25.878906 13.972656 -26.359375 11.328125 -26.359375 Z M 11.328125 -26.359375 "/></g></g></g><g fill="#00a959" fill-opacity="1"><g transform="translate(664.309625, 752.840512)"><g><path d="M 20.296875 0 L 4 0 L 4 -29.265625 L 20.296875 -29.265625 L 20.296875 -26.265625 L 7.40625 -26.265625 L 7.40625 -16.796875 L 19.5625 -16.796875 L 19.5625 -13.828125 L 7.40625 -13.828125 L 7.40625 -3 L 20.296875 -3 Z M 20.296875 0 "/></g></g></g><g fill="#00a959" fill-opacity="1"><g transform="translate(684.338714, 752.840512)"><g><path d="M 11.90625 -29.265625 C 14.3125 -29.265625 16.296875 -28.96875 17.859375 -28.375 C 19.429688 -27.78125 20.601562 -26.875 21.375 -25.65625 C 22.15625 -24.445312 22.546875 -22.898438 22.546875 -21.015625 C 22.546875 -19.472656 22.265625 -18.179688 21.703125 -17.140625 C 21.140625 -16.109375 20.40625 -15.269531 19.5 -14.625 C 18.59375 -13.988281 17.625 -13.5 16.59375 -13.15625 L 24.625 0 L 20.65625 0 L 13.5 -12.21875 L 7.40625 -12.21875 L 7.40625 0 L 4 0 L 4 -29.265625 Z M 11.71875 -26.328125 L 7.40625 -26.328125 L 7.40625 -15.09375 L 12.046875 -15.09375 C 14.441406 -15.09375 16.203125 -15.578125 17.328125 -16.546875 C 18.453125 -17.523438 19.015625 -18.960938 19.015625 -20.859375 C 19.015625 -22.847656 18.414062 -24.253906 17.21875 -25.078125 C 16.03125 -25.910156 14.195312 -26.328125 11.71875 -26.328125 Z M 11.71875 -26.328125 "/></g></g></g><g fill="#00a959" fill-opacity="1"><g transform="translate(706.889665, 752.840512)"><g><path d="M 22.359375 0 L 18.765625 -9.296875 L 7.03125 -9.296875 L 3.4375 0 L 0 0 L 11.453125 -29.390625 L 14.515625 -29.390625 L 25.890625 0 Z M 17.734375 -12.3125 L 14.3125 -21.546875 C 14.226562 -21.785156 14.097656 -22.175781 13.921875 -22.71875 C 13.742188 -23.269531 13.5625 -23.835938 13.375 -24.421875 C 13.1875 -25.015625 13.03125 -25.488281 12.90625 -25.84375 C 12.78125 -25.300781 12.640625 -24.757812 12.484375 -24.21875 C 12.328125 -23.675781 12.175781 -23.171875 12.03125 -22.703125 C 11.882812 -22.242188 11.757812 -21.859375 11.65625 -21.546875 L 8.171875 -12.3125 Z M 17.734375 -12.3125 "/></g></g></g><g fill="#00a959" fill-opacity="1"><g transform="translate(730.061073, 752.840512)"><g><path d="M 13 0 L 9.5625 0 L 9.5625 -26.265625 L 0.359375 -26.265625 L 0.359375 -29.265625 L 22.15625 -29.265625 L 22.15625 -26.265625 L 13 -26.265625 Z M 13 0 "/></g></g></g><g fill="#00a959" fill-opacity="1"><g transform="translate(749.890014, 752.840512)"><g><path d="M 4 0 L 4 -29.265625 L 7.40625 -29.265625 L 7.40625 0 Z M 4 0 "/></g></g></g><g fill="#00a959" fill-opacity="1"><g transform="translate(758.590741, 752.840512)"><g><path d="M 24.4375 -29.265625 L 13.9375 0 L 10.515625 0 L 0 -29.265625 L 3.5625 -29.265625 L 10.40625 -9.984375 C 10.6875 -9.210938 10.9375 -8.472656 11.15625 -7.765625 C 11.375 -7.054688 11.570312 -6.375 11.75 -5.71875 C 11.925781 -5.070312 12.082031 -4.441406 12.21875 -3.828125 C 12.34375 -4.441406 12.492188 -5.078125 12.671875 -5.734375 C 12.847656 -6.398438 13.046875 -7.085938 13.265625 -7.796875 C 13.492188 -8.515625 13.75 -9.265625 14.03125 -10.046875 L 20.84375 -29.265625 Z M 24.4375 -29.265625 "/></g></g></g><g fill="#00a959" fill-opacity="1"><g transform="translate(780.281056, 752.840512)"><g><path d="M 20.296875 0 L 4 0 L 4 -29.265625 L 20.296875 -29.265625 L 20.296875 -26.265625 L 7.40625 -26.265625 L 7.40625 -16.796875 L 19.5625 -16.796875 L 19.5625 -13.828125 L 7.40625 -13.828125 L 7.40625 -3 L 20.296875 -3 Z M 20.296875 0 "/></g></g></g></svg>