<svg xmlns="http://www.w3.org/2000/svg" xmlns:xlink="http://www.w3.org/1999/xlink" width="1080" zoomAndPan="magnify" viewBox="0 0 810 809.999993" height="1080" preserveAspectRatio="xMidYMid meet" version="1.0"><defs><g/><clipPath id="adf640c301"><path d="M 214.367188 449 L 543 449 L 543 530 L 214.367188 530 Z M 214.367188 449 " clip-rule="nonzero"/></clipPath><clipPath id="e2a9485391"><path d="M 356 252.027344 L 512 252.027344 L 512 530 L 356 530 Z M 356 252.027344 " clip-rule="nonzero"/></clipPath><clipPath id="e0b1b2b42e"><path d="M 277 252.027344 L 431 252.027344 L 431 450 L 277 450 Z M 277 252.027344 " clip-rule="nonzero"/></clipPath><clipPath id="a183984551"><path d="M 348 326 L 581.867188 326 L 581.867188 530 L 348 530 Z M 348 326 " clip-rule="nonzero"/></clipPath></defs><g clip-path="url(#adf640c301)"><path fill="#875b56" d="M 506.519531 450.210938 L 542.496094 529.574219 L 413.746094 529.542969 C 417.433594 517.355469 421.175781 505.992188 425.160156 495.335938 L 484.195312 495.335938 L 467.625 449.914062 Z M 408.378906 529.515625 L 387.058594 529.515625 C 384.699219 516.972656 381.984375 505.609375 378.949219 495.335938 L 419.671875 495.335938 C 415.722656 506.023438 412.007812 517.355469 408.378906 529.515625 Z M 381.808594 529.515625 L 348.457031 529.515625 C 352.671875 517.265625 356.976562 505.902344 361.402344 495.335938 L 373.523438 495.335938 C 376.675781 505.578125 379.421875 516.914062 381.808594 529.515625 Z M 343.03125 529.515625 L 338.902344 529.515625 C 337.074219 517.058594 334.921875 505.757812 332.265625 495.335938 L 355.796875 495.335938 C 351.433594 505.933594 347.160156 517.296875 343.03125 529.515625 Z M 333.679688 529.515625 L 214.367188 529.484375 L 250.875 449.914062 L 296.523438 449.914062 L 272.34375 495.335938 L 326.957031 495.335938 C 329.671875 505.726562 331.824219 517.03125 333.679688 529.515625 Z M 333.679688 529.515625 " fill-opacity="1" fill-rule="evenodd"/></g><path fill="#875b56" d="M 369.277344 320.585938 L 339.046875 320.585938 L 386.203125 436.78125 C 392.484375 427.308594 399.058594 418.75 405.960938 410.988281 Z M 388.621094 442.742188 L 415.160156 508.117188 C 419.761719 494.453125 424.628906 481.878906 429.964844 470.164062 L 408.203125 416.535156 C 401.359375 424.417969 394.84375 433.09375 388.621094 442.742188 Z M 418.140625 515.496094 L 423.800781 529.425781 L 454.027344 529.425781 L 432.648438 476.804688 C 427.457031 488.695312 422.679688 501.535156 418.140625 515.496094 Z M 418.140625 515.496094 " fill-opacity="1" fill-rule="evenodd"/><g clip-path="url(#e2a9485391)"><path fill="#875b56" d="M 401.359375 252.085938 L 356.625 252.085938 L 415.515625 400.980469 C 426.042969 390.652344 437.335938 381.828125 449.574219 374.007812 Z M 417.636719 406.414062 L 437.101562 455.582031 C 445.121094 440.265625 454.292969 426.394531 465.144531 413.40625 L 451.550781 379.054688 C 439.371094 386.964844 428.136719 395.90625 417.636719 406.414062 Z M 439.609375 461.957031 L 466.296875 529.425781 L 511.03125 529.425781 L 467.328125 418.898438 C 456.566406 432.089844 447.542969 446.226562 439.609375 461.957031 Z M 439.609375 461.957031 " fill-opacity="1" fill-rule="evenodd"/></g><g clip-path="url(#e0b1b2b42e)"><path fill="#00a859" d="M 356.242188 362.9375 L 363.820312 381.589844 L 394.046875 381.589844 L 371.132812 325.132812 L 378.300781 306.921875 L 385.316406 324.660156 L 430.054688 324.660156 L 401.359375 252.085938 L 355.179688 252.085938 L 297.351562 398.917969 C 310.972656 405.171875 322.976562 412.167969 333.476562 420.785156 Z M 287.058594 425.066406 L 277.296875 449.914062 L 307.671875 449.914062 C 305.84375 447.023438 304.753906 445.519531 302.660156 442.742188 C 298.117188 436.632812 292.957031 430.789062 287.058594 425.066406 Z M 287.058594 425.066406 " fill-opacity="1" fill-rule="evenodd"/></g><path fill="#875b56" d="M 277.296875 449.914062 L 245.980469 529.425781 L 290.714844 529.425781 L 316.078125 464.96875 C 315.898438 464.613281 315.722656 464.230469 315.546875 463.847656 C 315.339844 463.433594 315.132812 462.992188 314.898438 462.578125 L 314.898438 462.519531 C 314.511719 461.75 314.101562 461.011719 313.71875 460.246094 L 313.570312 459.949219 L 313.066406 459.035156 L 312.949219 458.828125 L 312.417969 457.882812 L 312.242188 457.53125 L 311.890625 456.910156 L 311.769531 456.675781 L 311.417969 456.054688 L 311.121094 455.582031 L 310.796875 454.992188 L 310.679688 454.785156 L 310.53125 454.578125 L 310.414062 454.34375 L 310.179688 453.929688 L 310.03125 453.722656 L 309.914062 453.515625 L 309.792969 453.308594 L 309.324219 452.542969 L 309.292969 452.484375 L 307.789062 450.121094 L 307.671875 449.914062 Z M 277.296875 449.914062 " fill-opacity="1" fill-rule="evenodd"/><path fill="#00a859" d="M 381.867188 529.78125 C 378.179688 510.359375 373.667969 493.980469 368.214844 479.992188 C 361.285156 494.777344 354.707031 511.273438 348.367188 529.78125 Z M 365.53125 473.496094 C 341.910156 419.191406 302.039062 403.402344 238.136719 382.476562 C 270.074219 401.839844 291.6875 419.398438 306.785156 439.617188 C 324.6875 463.640625 333.296875 491.207031 338.929688 529.78125 L 342.941406 529.78125 C 350.105469 508.589844 357.597656 489.964844 365.53125 473.496094 Z M 365.53125 473.496094 " fill-opacity="1" fill-rule="evenodd"/><g clip-path="url(#a183984551)"><path fill="#00a859" d="M 581.867188 326.222656 C 460.164062 364 397.085938 387.40625 348.367188 529.78125 L 408.289062 529.78125 C 424.007812 477.070312 441.40625 439.554688 470.75 406.972656 C 496.40625 378.464844 531.144531 353.847656 581.867188 326.222656 Z M 581.867188 326.222656 " fill-opacity="1" fill-rule="evenodd"/></g><g fill="#00a959" fill-opacity="1"><g transform="translate(214.366414, 554.139256)"><g><path d="M 10.140625 -12.140625 L 5.78125 0 L 4.359375 0 L 0 -12.140625 L 1.484375 -12.140625 L 4.3125 -4.140625 C 4.425781 -3.816406 4.53125 -3.507812 4.625 -3.21875 C 4.71875 -2.925781 4.800781 -2.644531 4.875 -2.375 C 4.945312 -2.101562 5.007812 -1.835938 5.0625 -1.578125 C 5.113281 -1.835938 5.175781 -2.101562 5.25 -2.375 C 5.320312 -2.65625 5.40625 -2.941406 5.5 -3.234375 C 5.59375 -3.523438 5.695312 -3.835938 5.8125 -4.171875 L 8.640625 -12.140625 Z M 10.140625 -12.140625 "/></g></g></g><g fill="#00a959" fill-opacity="1"><g transform="translate(223.357962, 554.139256)"><g><path d="M 1.65625 0 L 1.65625 -12.140625 L 3.078125 -12.140625 L 3.078125 0 Z M 1.65625 0 "/></g></g></g><g fill="#00a959" fill-opacity="1"><g transform="translate(226.96478, 554.139256)"><g><path d="M 8.421875 0 L 1.65625 0 L 1.65625 -12.140625 L 8.421875 -12.140625 L 8.421875 -10.890625 L 3.078125 -10.890625 L 3.078125 -6.96875 L 8.109375 -6.96875 L 8.109375 -5.734375 L 3.078125 -5.734375 L 3.078125 -1.25 L 8.421875 -1.25 Z M 8.421875 0 "/></g></g></g><g fill="#00a959" fill-opacity="1"><g transform="translate(235.267681, 554.139256)"><g><path d="M 5.390625 0 L 3.96875 0 L 3.96875 -10.890625 L 0.15625 -10.890625 L 0.15625 -12.140625 L 9.1875 -12.140625 L 9.1875 -10.890625 L 5.390625 -10.890625 Z M 5.390625 0 "/></g></g></g><g fill="#00a959" fill-opacity="1"><g transform="translate(243.487612, 554.139256)"><g><path d="M 11.140625 0 L 9.515625 0 L 2.90625 -10.1875 L 2.84375 -10.1875 C 2.851562 -9.914062 2.867188 -9.609375 2.890625 -9.265625 C 2.921875 -8.921875 2.941406 -8.550781 2.953125 -8.15625 C 2.960938 -7.769531 2.96875 -7.375 2.96875 -6.96875 L 2.96875 0 L 1.65625 0 L 1.65625 -12.140625 L 3.28125 -12.140625 L 9.875 -1.96875 L 9.921875 -1.96875 C 9.910156 -2.164062 9.894531 -2.441406 9.875 -2.796875 C 9.863281 -3.160156 9.847656 -3.546875 9.828125 -3.953125 C 9.816406 -4.367188 9.8125 -4.753906 9.8125 -5.109375 L 9.8125 -12.140625 L 11.140625 -12.140625 Z M 11.140625 0 "/></g></g></g><g fill="#00a959" fill-opacity="1"><g transform="translate(255.142486, 554.139256)"><g><path d="M 9.265625 0 L 7.78125 -3.859375 L 2.90625 -3.859375 L 1.421875 0 L 0 0 L 4.75 -12.1875 L 6.015625 -12.1875 L 10.734375 0 Z M 7.359375 -5.109375 L 5.9375 -8.9375 C 5.90625 -9.03125 5.847656 -9.191406 5.765625 -9.421875 C 5.691406 -9.648438 5.613281 -9.882812 5.53125 -10.125 C 5.457031 -10.375 5.398438 -10.570312 5.359375 -10.71875 C 5.296875 -10.488281 5.234375 -10.257812 5.171875 -10.03125 C 5.109375 -9.8125 5.046875 -9.601562 4.984375 -9.40625 C 4.921875 -9.21875 4.867188 -9.0625 4.828125 -8.9375 L 3.390625 -5.109375 Z M 7.359375 -5.109375 "/></g></g></g><g fill="#00a959" fill-opacity="1"><g transform="translate(264.748012, 554.139256)"><g><path d="M 7 0 L 2.921875 -10.734375 L 2.859375 -10.734375 C 2.878906 -10.515625 2.894531 -10.238281 2.90625 -9.90625 C 2.925781 -9.582031 2.941406 -9.226562 2.953125 -8.84375 C 2.960938 -8.457031 2.96875 -8.066406 2.96875 -7.671875 L 2.96875 0 L 1.65625 0 L 1.65625 -12.140625 L 3.75 -12.140625 L 7.59375 -2.046875 L 7.65625 -2.046875 L 11.5625 -12.140625 L 13.625 -12.140625 L 13.625 0 L 12.234375 0 L 12.234375 -7.765625 C 12.234375 -8.128906 12.238281 -8.488281 12.25 -8.84375 C 12.257812 -9.207031 12.269531 -9.550781 12.28125 -9.875 C 12.300781 -10.207031 12.320312 -10.488281 12.34375 -10.71875 L 12.28125 -10.71875 L 8.15625 0 Z M 7 0 "/></g></g></g><g fill="#00a959" fill-opacity="1"><g transform="translate(278.891977, 554.139256)"><g/></g></g><g fill="#00a959" fill-opacity="1"><g transform="translate(282.166915, 554.139256)"><g><path d="M 4.9375 -12.140625 C 5.9375 -12.140625 6.757812 -12.015625 7.40625 -11.765625 C 8.0625 -11.515625 8.546875 -11.140625 8.859375 -10.640625 C 9.179688 -10.140625 9.34375 -9.5 9.34375 -8.71875 C 9.34375 -8.070312 9.226562 -7.535156 9 -7.109375 C 8.769531 -6.679688 8.460938 -6.332031 8.078125 -6.0625 C 7.703125 -5.800781 7.300781 -5.597656 6.875 -5.453125 L 10.203125 0 L 8.5625 0 L 5.59375 -5.0625 L 3.078125 -5.0625 L 3.078125 0 L 1.65625 0 L 1.65625 -12.140625 Z M 4.859375 -10.921875 L 3.078125 -10.921875 L 3.078125 -6.265625 L 5 -6.265625 C 5.988281 -6.265625 6.71875 -6.460938 7.1875 -6.859375 C 7.65625 -7.265625 7.890625 -7.863281 7.890625 -8.65625 C 7.890625 -9.476562 7.640625 -10.0625 7.140625 -10.40625 C 6.648438 -10.75 5.890625 -10.921875 4.859375 -10.921875 Z M 4.859375 -10.921875 "/></g></g></g><g fill="#00a959" fill-opacity="1"><g transform="translate(291.515233, 554.139256)"><g><path d="M 10.84375 -12.140625 L 10.84375 -4.28125 C 10.84375 -3.425781 10.664062 -2.660156 10.3125 -1.984375 C 9.96875 -1.316406 9.445312 -0.789062 8.75 -0.40625 C 8.0625 -0.0195312 7.191406 0.171875 6.140625 0.171875 C 4.640625 0.171875 3.492188 -0.234375 2.703125 -1.046875 C 1.921875 -1.867188 1.53125 -2.957031 1.53125 -4.3125 L 1.53125 -12.140625 L 2.953125 -12.140625 L 2.953125 -4.28125 C 2.953125 -3.25 3.222656 -2.453125 3.765625 -1.890625 C 4.316406 -1.328125 5.132812 -1.046875 6.21875 -1.046875 C 6.957031 -1.046875 7.5625 -1.179688 8.03125 -1.453125 C 8.507812 -1.722656 8.863281 -2.097656 9.09375 -2.578125 C 9.320312 -3.066406 9.4375 -3.628906 9.4375 -4.265625 L 9.4375 -12.140625 Z M 10.84375 -12.140625 "/></g></g></g><g fill="#00a959" fill-opacity="1"><g transform="translate(302.763555, 554.139256)"><g><path d="M 4.9375 -12.140625 C 5.9375 -12.140625 6.757812 -12.015625 7.40625 -11.765625 C 8.0625 -11.515625 8.546875 -11.140625 8.859375 -10.640625 C 9.179688 -10.140625 9.34375 -9.5 9.34375 -8.71875 C 9.34375 -8.070312 9.226562 -7.535156 9 -7.109375 C 8.769531 -6.679688 8.460938 -6.332031 8.078125 -6.0625 C 7.703125 -5.800781 7.300781 -5.597656 6.875 -5.453125 L 10.203125 0 L 8.5625 0 L 5.59375 -5.0625 L 3.078125 -5.0625 L 3.078125 0 L 1.65625 0 L 1.65625 -12.140625 Z M 4.859375 -10.921875 L 3.078125 -10.921875 L 3.078125 -6.265625 L 5 -6.265625 C 5.988281 -6.265625 6.71875 -6.460938 7.1875 -6.859375 C 7.65625 -7.265625 7.890625 -7.863281 7.890625 -8.65625 C 7.890625 -9.476562 7.640625 -10.0625 7.140625 -10.40625 C 6.648438 -10.75 5.890625 -10.921875 4.859375 -10.921875 Z M 4.859375 -10.921875 "/></g></g></g><g fill="#00a959" fill-opacity="1"><g transform="translate(312.111873, 554.139256)"><g><path d="M 9.265625 0 L 7.78125 -3.859375 L 2.90625 -3.859375 L 1.421875 0 L 0 0 L 4.75 -12.1875 L 6.015625 -12.1875 L 10.734375 0 Z M 7.359375 -5.109375 L 5.9375 -8.9375 C 5.90625 -9.03125 5.847656 -9.191406 5.765625 -9.421875 C 5.691406 -9.648438 5.613281 -9.882812 5.53125 -10.125 C 5.457031 -10.375 5.398438 -10.570312 5.359375 -10.71875 C 5.296875 -10.488281 5.234375 -10.257812 5.171875 -10.03125 C 5.109375 -9.8125 5.046875 -9.601562 4.984375 -9.40625 C 4.921875 -9.21875 4.867188 -9.0625 4.828125 -8.9375 L 3.390625 -5.109375 Z M 7.359375 -5.109375 "/></g></g></g><g fill="#00a959" fill-opacity="1"><g transform="translate(321.717402, 554.139256)"><g><path d="M 1.65625 0 L 1.65625 -12.140625 L 3.078125 -12.140625 L 3.078125 -1.265625 L 8.453125 -1.265625 L 8.453125 0 Z M 1.65625 0 "/></g></g></g><g fill="#00a959" fill-opacity="1"><g transform="translate(329.447817, 554.139256)"><g/></g></g><g fill="#00a959" fill-opacity="1"><g transform="translate(332.722761, 554.139256)"><g><path d="M 11.296875 -6.1875 C 11.296875 -4.820312 11.046875 -3.679688 10.546875 -2.765625 C 10.046875 -1.847656 9.320312 -1.15625 8.375 -0.6875 C 7.4375 -0.226562 6.296875 0 4.953125 0 L 1.65625 0 L 1.65625 -12.140625 L 5.328125 -12.140625 C 6.554688 -12.140625 7.613281 -11.910156 8.5 -11.453125 C 9.394531 -11.003906 10.082031 -10.335938 10.5625 -9.453125 C 11.050781 -8.578125 11.296875 -7.488281 11.296875 -6.1875 Z M 9.8125 -6.140625 C 9.8125 -7.222656 9.628906 -8.117188 9.265625 -8.828125 C 8.898438 -9.535156 8.367188 -10.0625 7.671875 -10.40625 C 6.972656 -10.757812 6.117188 -10.9375 5.109375 -10.9375 L 3.078125 -10.9375 L 3.078125 -1.21875 L 4.796875 -1.21875 C 6.460938 -1.21875 7.710938 -1.628906 8.546875 -2.453125 C 9.390625 -3.273438 9.8125 -4.503906 9.8125 -6.140625 Z M 9.8125 -6.140625 "/></g></g></g><g fill="#00a959" fill-opacity="1"><g transform="translate(343.913011, 554.139256)"><g><path d="M 8.421875 0 L 1.65625 0 L 1.65625 -12.140625 L 8.421875 -12.140625 L 8.421875 -10.890625 L 3.078125 -10.890625 L 3.078125 -6.96875 L 8.109375 -6.96875 L 8.109375 -5.734375 L 3.078125 -5.734375 L 3.078125 -1.25 L 8.421875 -1.25 Z M 8.421875 0 "/></g></g></g><g fill="#00a959" fill-opacity="1"><g transform="translate(352.215917, 554.139256)"><g><path d="M 10.140625 -12.140625 L 5.78125 0 L 4.359375 0 L 0 -12.140625 L 1.484375 -12.140625 L 4.3125 -4.140625 C 4.425781 -3.816406 4.53125 -3.507812 4.625 -3.21875 C 4.71875 -2.925781 4.800781 -2.644531 4.875 -2.375 C 4.945312 -2.101562 5.007812 -1.835938 5.0625 -1.578125 C 5.113281 -1.835938 5.175781 -2.101562 5.25 -2.375 C 5.320312 -2.65625 5.40625 -2.941406 5.5 -3.234375 C 5.59375 -3.523438 5.695312 -3.835938 5.8125 -4.171875 L 8.640625 -12.140625 Z M 10.140625 -12.140625 "/></g></g></g><g fill="#00a959" fill-opacity="1"><g transform="translate(361.207471, 554.139256)"><g><path d="M 8.421875 0 L 1.65625 0 L 1.65625 -12.140625 L 8.421875 -12.140625 L 8.421875 -10.890625 L 3.078125 -10.890625 L 3.078125 -6.96875 L 8.109375 -6.96875 L 8.109375 -5.734375 L 3.078125 -5.734375 L 3.078125 -1.25 L 8.421875 -1.25 Z M 8.421875 0 "/></g></g></g><g fill="#00a959" fill-opacity="1"><g transform="translate(369.510376, 554.139256)"><g><path d="M 1.65625 0 L 1.65625 -12.140625 L 3.078125 -12.140625 L 3.078125 -1.265625 L 8.453125 -1.265625 L 8.453125 0 Z M 1.65625 0 "/></g></g></g><g fill="#00a959" fill-opacity="1"><g transform="translate(377.240791, 554.139256)"><g><path d="M 12.1875 -6.078125 C 12.1875 -5.148438 12.066406 -4.300781 11.828125 -3.53125 C 11.585938 -2.757812 11.234375 -2.097656 10.765625 -1.546875 C 10.296875 -1.003906 9.71875 -0.582031 9.03125 -0.28125 C 8.34375 0.0195312 7.539062 0.171875 6.625 0.171875 C 5.6875 0.171875 4.863281 0.0195312 4.15625 -0.28125 C 3.457031 -0.582031 2.878906 -1.007812 2.421875 -1.5625 C 1.960938 -2.113281 1.613281 -2.773438 1.375 -3.546875 C 1.144531 -4.316406 1.03125 -5.164062 1.03125 -6.09375 C 1.03125 -7.332031 1.234375 -8.421875 1.640625 -9.359375 C 2.054688 -10.296875 2.679688 -11.023438 3.515625 -11.546875 C 4.347656 -12.066406 5.394531 -12.328125 6.65625 -12.328125 C 7.851562 -12.328125 8.863281 -12.066406 9.6875 -11.546875 C 10.507812 -11.035156 11.128906 -10.3125 11.546875 -9.375 C 11.972656 -8.445312 12.1875 -7.347656 12.1875 -6.078125 Z M 2.53125 -6.078125 C 2.53125 -5.054688 2.675781 -4.164062 2.96875 -3.40625 C 3.257812 -2.65625 3.707031 -2.070312 4.3125 -1.65625 C 4.914062 -1.25 5.6875 -1.046875 6.625 -1.046875 C 7.5625 -1.046875 8.332031 -1.25 8.9375 -1.65625 C 9.539062 -2.070312 9.984375 -2.65625 10.265625 -3.40625 C 10.554688 -4.164062 10.703125 -5.054688 10.703125 -6.078125 C 10.703125 -7.648438 10.375 -8.875 9.71875 -9.75 C 9.0625 -10.632812 8.039062 -11.078125 6.65625 -11.078125 C 5.707031 -11.078125 4.925781 -10.875 4.3125 -10.46875 C 3.707031 -10.070312 3.257812 -9.5 2.96875 -8.75 C 2.675781 -8.007812 2.53125 -7.117188 2.53125 -6.078125 Z M 2.53125 -6.078125 "/></g></g></g><g fill="#00a959" fill-opacity="1"><g transform="translate(389.318805, 554.139256)"><g><path d="M 4.828125 -12.140625 C 6.398438 -12.140625 7.546875 -11.832031 8.265625 -11.21875 C 8.984375 -10.601562 9.34375 -9.726562 9.34375 -8.59375 C 9.34375 -8.070312 9.257812 -7.582031 9.09375 -7.125 C 8.925781 -6.664062 8.65625 -6.257812 8.28125 -5.90625 C 7.90625 -5.550781 7.410156 -5.269531 6.796875 -5.0625 C 6.179688 -4.863281 5.429688 -4.765625 4.546875 -4.765625 L 3.078125 -4.765625 L 3.078125 0 L 1.65625 0 L 1.65625 -12.140625 Z M 4.703125 -10.9375 L 3.078125 -10.9375 L 3.078125 -5.984375 L 4.390625 -5.984375 C 5.160156 -5.984375 5.804688 -6.066406 6.328125 -6.234375 C 6.847656 -6.398438 7.238281 -6.671875 7.5 -7.046875 C 7.757812 -7.421875 7.890625 -7.914062 7.890625 -8.53125 C 7.890625 -9.34375 7.628906 -9.945312 7.109375 -10.34375 C 6.597656 -10.738281 5.796875 -10.9375 4.703125 -10.9375 Z M 4.703125 -10.9375 "/></g></g></g><g fill="#00a959" fill-opacity="1"><g transform="translate(398.401626, 554.139256)"><g><path d="M 7 0 L 2.921875 -10.734375 L 2.859375 -10.734375 C 2.878906 -10.515625 2.894531 -10.238281 2.90625 -9.90625 C 2.925781 -9.582031 2.941406 -9.226562 2.953125 -8.84375 C 2.960938 -8.457031 2.96875 -8.066406 2.96875 -7.671875 L 2.96875 0 L 1.65625 0 L 1.65625 -12.140625 L 3.75 -12.140625 L 7.59375 -2.046875 L 7.65625 -2.046875 L 11.5625 -12.140625 L 13.625 -12.140625 L 13.625 0 L 12.234375 0 L 12.234375 -7.765625 C 12.234375 -8.128906 12.238281 -8.488281 12.25 -8.84375 C 12.257812 -9.207031 12.269531 -9.550781 12.28125 -9.875 C 12.300781 -10.207031 12.320312 -10.488281 12.34375 -10.71875 L 12.28125 -10.71875 L 8.15625 0 Z M 7 0 "/></g></g></g><g fill="#00a959" fill-opacity="1"><g transform="translate(412.545595, 554.139256)"><g><path d="M 8.421875 0 L 1.65625 0 L 1.65625 -12.140625 L 8.421875 -12.140625 L 8.421875 -10.890625 L 3.078125 -10.890625 L 3.078125 -6.96875 L 8.109375 -6.96875 L 8.109375 -5.734375 L 3.078125 -5.734375 L 3.078125 -1.25 L 8.421875 -1.25 Z M 8.421875 0 "/></g></g></g><g fill="#00a959" fill-opacity="1"><g transform="translate(420.848489, 554.139256)"><g><path d="M 11.140625 0 L 9.515625 0 L 2.90625 -10.1875 L 2.84375 -10.1875 C 2.851562 -9.914062 2.867188 -9.609375 2.890625 -9.265625 C 2.921875 -8.921875 2.941406 -8.550781 2.953125 -8.15625 C 2.960938 -7.769531 2.96875 -7.375 2.96875 -6.96875 L 2.96875 0 L 1.65625 0 L 1.65625 -12.140625 L 3.28125 -12.140625 L 9.875 -1.96875 L 9.921875 -1.96875 C 9.910156 -2.164062 9.894531 -2.441406 9.875 -2.796875 C 9.863281 -3.160156 9.847656 -3.546875 9.828125 -3.953125 C 9.816406 -4.367188 9.8125 -4.753906 9.8125 -5.109375 L 9.8125 -12.140625 L 11.140625 -12.140625 Z M 11.140625 0 "/></g></g></g><g fill="#00a959" fill-opacity="1"><g transform="translate(432.503358, 554.139256)"><g><path d="M 5.390625 0 L 3.96875 0 L 3.96875 -10.890625 L 0.15625 -10.890625 L 0.15625 -12.140625 L 9.1875 -12.140625 L 9.1875 -10.890625 L 5.390625 -10.890625 Z M 5.390625 0 "/></g></g></g><g fill="#00a959" fill-opacity="1"><g transform="translate(440.723282, 554.139256)"><g/></g></g><g fill="#00a959" fill-opacity="1"><g transform="translate(444.007027, 554.139256)"><g><path d="M 6.84375 -11.0625 C 6.175781 -11.0625 5.570312 -10.945312 5.03125 -10.71875 C 4.5 -10.488281 4.046875 -10.15625 3.671875 -9.71875 C 3.304688 -9.289062 3.023438 -8.769531 2.828125 -8.15625 C 2.628906 -7.539062 2.53125 -6.847656 2.53125 -6.078125 C 2.53125 -5.054688 2.6875 -4.171875 3 -3.421875 C 3.320312 -2.671875 3.796875 -2.09375 4.421875 -1.6875 C 5.054688 -1.28125 5.851562 -1.078125 6.8125 -1.078125 C 7.351562 -1.078125 7.863281 -1.117188 8.34375 -1.203125 C 8.820312 -1.296875 9.285156 -1.410156 9.734375 -1.546875 L 9.734375 -0.328125 C 9.296875 -0.160156 8.832031 -0.0351562 8.34375 0.046875 C 7.851562 0.128906 7.273438 0.171875 6.609375 0.171875 C 5.367188 0.171875 4.335938 -0.0820312 3.515625 -0.59375 C 2.691406 -1.113281 2.070312 -1.835938 1.65625 -2.765625 C 1.238281 -3.703125 1.03125 -4.804688 1.03125 -6.078125 C 1.03125 -7.003906 1.160156 -7.847656 1.421875 -8.609375 C 1.679688 -9.367188 2.054688 -10.023438 2.546875 -10.578125 C 3.046875 -11.128906 3.65625 -11.554688 4.375 -11.859375 C 5.101562 -12.160156 5.929688 -12.3125 6.859375 -12.3125 C 7.472656 -12.3125 8.066406 -12.25 8.640625 -12.125 C 9.210938 -12 9.726562 -11.828125 10.1875 -11.609375 L 9.625 -10.40625 C 9.238281 -10.582031 8.8125 -10.734375 8.34375 -10.859375 C 7.882812 -10.992188 7.382812 -11.0625 6.84375 -11.0625 Z M 6.84375 -11.0625 "/></g></g></g><g fill="#00a959" fill-opacity="1"><g transform="translate(453.571066, 554.139256)"><g><path d="M 12.1875 -6.078125 C 12.1875 -5.148438 12.066406 -4.300781 11.828125 -3.53125 C 11.585938 -2.757812 11.234375 -2.097656 10.765625 -1.546875 C 10.296875 -1.003906 9.71875 -0.582031 9.03125 -0.28125 C 8.34375 0.0195312 7.539062 0.171875 6.625 0.171875 C 5.6875 0.171875 4.863281 0.0195312 4.15625 -0.28125 C 3.457031 -0.582031 2.878906 -1.007812 2.421875 -1.5625 C 1.960938 -2.113281 1.613281 -2.773438 1.375 -3.546875 C 1.144531 -4.316406 1.03125 -5.164062 1.03125 -6.09375 C 1.03125 -7.332031 1.234375 -8.421875 1.640625 -9.359375 C 2.054688 -10.296875 2.679688 -11.023438 3.515625 -11.546875 C 4.347656 -12.066406 5.394531 -12.328125 6.65625 -12.328125 C 7.851562 -12.328125 8.863281 -12.066406 9.6875 -11.546875 C 10.507812 -11.035156 11.128906 -10.3125 11.546875 -9.375 C 11.972656 -8.445312 12.1875 -7.347656 12.1875 -6.078125 Z M 2.53125 -6.078125 C 2.53125 -5.054688 2.675781 -4.164062 2.96875 -3.40625 C 3.257812 -2.65625 3.707031 -2.070312 4.3125 -1.65625 C 4.914062 -1.25 5.6875 -1.046875 6.625 -1.046875 C 7.5625 -1.046875 8.332031 -1.25 8.9375 -1.65625 C 9.539062 -2.070312 9.984375 -2.65625 10.265625 -3.40625 C 10.554688 -4.164062 10.703125 -5.054688 10.703125 -6.078125 C 10.703125 -7.648438 10.375 -8.875 9.71875 -9.75 C 9.0625 -10.632812 8.039062 -11.078125 6.65625 -11.078125 C 5.707031 -11.078125 4.925781 -10.875 4.3125 -10.46875 C 3.707031 -10.070312 3.257812 -9.5 2.96875 -8.75 C 2.675781 -8.007812 2.53125 -7.117188 2.53125 -6.078125 Z M 2.53125 -6.078125 "/></g></g></g><g fill="#00a959" fill-opacity="1"><g transform="translate(465.649086, 554.139256)"><g><path d="M 12.1875 -6.078125 C 12.1875 -5.148438 12.066406 -4.300781 11.828125 -3.53125 C 11.585938 -2.757812 11.234375 -2.097656 10.765625 -1.546875 C 10.296875 -1.003906 9.71875 -0.582031 9.03125 -0.28125 C 8.34375 0.0195312 7.539062 0.171875 6.625 0.171875 C 5.6875 0.171875 4.863281 0.0195312 4.15625 -0.28125 C 3.457031 -0.582031 2.878906 -1.007812 2.421875 -1.5625 C 1.960938 -2.113281 1.613281 -2.773438 1.375 -3.546875 C 1.144531 -4.316406 1.03125 -5.164062 1.03125 -6.09375 C 1.03125 -7.332031 1.234375 -8.421875 1.640625 -9.359375 C 2.054688 -10.296875 2.679688 -11.023438 3.515625 -11.546875 C 4.347656 -12.066406 5.394531 -12.328125 6.65625 -12.328125 C 7.851562 -12.328125 8.863281 -12.066406 9.6875 -11.546875 C 10.507812 -11.035156 11.128906 -10.3125 11.546875 -9.375 C 11.972656 -8.445312 12.1875 -7.347656 12.1875 -6.078125 Z M 2.53125 -6.078125 C 2.53125 -5.054688 2.675781 -4.164062 2.96875 -3.40625 C 3.257812 -2.65625 3.707031 -2.070312 4.3125 -1.65625 C 4.914062 -1.25 5.6875 -1.046875 6.625 -1.046875 C 7.5625 -1.046875 8.332031 -1.25 8.9375 -1.65625 C 9.539062 -2.070312 9.984375 -2.65625 10.265625 -3.40625 C 10.554688 -4.164062 10.703125 -5.054688 10.703125 -6.078125 C 10.703125 -7.648438 10.375 -8.875 9.71875 -9.75 C 9.0625 -10.632812 8.039062 -11.078125 6.65625 -11.078125 C 5.707031 -11.078125 4.925781 -10.875 4.3125 -10.46875 C 3.707031 -10.070312 3.257812 -9.5 2.96875 -8.75 C 2.675781 -8.007812 2.53125 -7.117188 2.53125 -6.078125 Z M 2.53125 -6.078125 "/></g></g></g><g fill="#00a959" fill-opacity="1"><g transform="translate(477.727105, 554.139256)"><g><path d="M 4.828125 -12.140625 C 6.398438 -12.140625 7.546875 -11.832031 8.265625 -11.21875 C 8.984375 -10.601562 9.34375 -9.726562 9.34375 -8.59375 C 9.34375 -8.070312 9.257812 -7.582031 9.09375 -7.125 C 8.925781 -6.664062 8.65625 -6.257812 8.28125 -5.90625 C 7.90625 -5.550781 7.410156 -5.269531 6.796875 -5.0625 C 6.179688 -4.863281 5.429688 -4.765625 4.546875 -4.765625 L 3.078125 -4.765625 L 3.078125 0 L 1.65625 0 L 1.65625 -12.140625 Z M 4.703125 -10.9375 L 3.078125 -10.9375 L 3.078125 -5.984375 L 4.390625 -5.984375 C 5.160156 -5.984375 5.804688 -6.066406 6.328125 -6.234375 C 6.847656 -6.398438 7.238281 -6.671875 7.5 -7.046875 C 7.757812 -7.421875 7.890625 -7.914062 7.890625 -8.53125 C 7.890625 -9.34375 7.628906 -9.945312 7.109375 -10.34375 C 6.597656 -10.738281 5.796875 -10.9375 4.703125 -10.9375 Z M 4.703125 -10.9375 "/></g></g></g><g fill="#00a959" fill-opacity="1"><g transform="translate(486.80992, 554.139256)"><g><path d="M 8.421875 0 L 1.65625 0 L 1.65625 -12.140625 L 8.421875 -12.140625 L 8.421875 -10.890625 L 3.078125 -10.890625 L 3.078125 -6.96875 L 8.109375 -6.96875 L 8.109375 -5.734375 L 3.078125 -5.734375 L 3.078125 -1.25 L 8.421875 -1.25 Z M 8.421875 0 "/></g></g></g><g fill="#00a959" fill-opacity="1"><g transform="translate(495.11282, 554.139256)"><g><path d="M 4.9375 -12.140625 C 5.9375 -12.140625 6.757812 -12.015625 7.40625 -11.765625 C 8.0625 -11.515625 8.546875 -11.140625 8.859375 -10.640625 C 9.179688 -10.140625 9.34375 -9.5 9.34375 -8.71875 C 9.34375 -8.070312 9.226562 -7.535156 9 -7.109375 C 8.769531 -6.679688 8.460938 -6.332031 8.078125 -6.0625 C 7.703125 -5.800781 7.300781 -5.597656 6.875 -5.453125 L 10.203125 0 L 8.5625 0 L 5.59375 -5.0625 L 3.078125 -5.0625 L 3.078125 0 L 1.65625 0 L 1.65625 -12.140625 Z M 4.859375 -10.921875 L 3.078125 -10.921875 L 3.078125 -6.265625 L 5 -6.265625 C 5.988281 -6.265625 6.71875 -6.460938 7.1875 -6.859375 C 7.65625 -7.265625 7.890625 -7.863281 7.890625 -8.65625 C 7.890625 -9.476562 7.640625 -10.0625 7.140625 -10.40625 C 6.648438 -10.75 5.890625 -10.921875 4.859375 -10.921875 Z M 4.859375 -10.921875 "/></g></g></g><g fill="#00a959" fill-opacity="1"><g transform="translate(504.461138, 554.139256)"><g><path d="M 9.265625 0 L 7.78125 -3.859375 L 2.90625 -3.859375 L 1.421875 0 L 0 0 L 4.75 -12.1875 L 6.015625 -12.1875 L 10.734375 0 Z M 7.359375 -5.109375 L 5.9375 -8.9375 C 5.90625 -9.03125 5.847656 -9.191406 5.765625 -9.421875 C 5.691406 -9.648438 5.613281 -9.882812 5.53125 -10.125 C 5.457031 -10.375 5.398438 -10.570312 5.359375 -10.71875 C 5.296875 -10.488281 5.234375 -10.257812 5.171875 -10.03125 C 5.109375 -9.8125 5.046875 -9.601562 4.984375 -9.40625 C 4.921875 -9.21875 4.867188 -9.0625 4.828125 -8.9375 L 3.390625 -5.109375 Z M 7.359375 -5.109375 "/></g></g></g><g fill="#00a959" fill-opacity="1"><g transform="translate(514.066661, 554.139256)"><g><path d="M 5.390625 0 L 3.96875 0 L 3.96875 -10.890625 L 0.15625 -10.890625 L 0.15625 -12.140625 L 9.1875 -12.140625 L 9.1875 -10.890625 L 5.390625 -10.890625 Z M 5.390625 0 "/></g></g></g><g fill="#00a959" fill-opacity="1"><g transform="translate(522.286591, 554.139256)"><g><path d="M 1.65625 0 L 1.65625 -12.140625 L 3.078125 -12.140625 L 3.078125 0 Z M 1.65625 0 "/></g></g></g><g fill="#00a959" fill-opacity="1"><g transform="translate(525.893409, 554.139256)"><g><path d="M 10.140625 -12.140625 L 5.78125 0 L 4.359375 0 L 0 -12.140625 L 1.484375 -12.140625 L 4.3125 -4.140625 C 4.425781 -3.816406 4.53125 -3.507812 4.625 -3.21875 C 4.71875 -2.925781 4.800781 -2.644531 4.875 -2.375 C 4.945312 -2.101562 5.007812 -1.835938 5.0625 -1.578125 C 5.113281 -1.835938 5.175781 -2.101562 5.25 -2.375 C 5.320312 -2.65625 5.40625 -2.941406 5.5 -3.234375 C 5.59375 -3.523438 5.695312 -3.835938 5.8125 -4.171875 L 8.640625 -12.140625 Z M 10.140625 -12.140625 "/></g></g></g><g fill="#00a959" fill-opacity="1"><g transform="translate(534.884957, 554.139256)"><g><path d="M 8.421875 0 L 1.65625 0 L 1.65625 -12.140625 L 8.421875 -12.140625 L 8.421875 -10.890625 L 3.078125 -10.890625 L 3.078125 -6.96875 L 8.109375 -6.96875 L 8.109375 -5.734375 L 3.078125 -5.734375 L 3.078125 -1.25 L 8.421875 -1.25 Z M 8.421875 0 "/></g></g></g></svg>